<svg xmlns="http://www.w3.org/2000/svg" viewBox="0 0 96 64" shape-rendering="crispEdges">
  <rect width="96" height="64" fill="none"/>
  <rect x="8" y="24" width="8" height="8" fill="#ca8a04"/>
  <rect x="16" y="16" width="8" height="8" fill="#eab308"/>
  <rect x="16" y="24" width="8" height="8" fill="#fde047"/>
  <rect x="16" y="32" width="8" height="8" fill="#eab308"/>
  <rect x="24" y="8" width="8" height="8" fill="#eab308"/>
  <rect x="24" y="16" width="8" height="8" fill="#fde047"/>
  <rect x="24" y="24" width="8" height="8" fill="#fef9c3"/>
  <rect x="24" y="32" width="8" height="8" fill="#fde047"/>
  <rect x="24" y="40" width="8" height="8" fill="#eab308"/>
  <rect x="32" y="16" width="8" height="8" fill="#fde68a"/>
  <rect x="32" y="24" width="8" height="8" fill="#fffef2"/>
  <rect x="32" y="32" width="8" height="8" fill="#fde68a"/>
  <rect x="40" y="16" width="8" height="8" fill="#fde68a"/>
  <rect x="40" y="24" width="8" height="8" fill="#fffef2"/>
  <rect x="40" y="32" width="8" height="8" fill="#fde68a"/>
  <rect x="48" y="16" width="8" height="8" fill="#fde68a"/>
  <rect x="48" y="24" width="8" height="8" fill="#fffef2"/>
  <rect x="48" y="32" width="8" height="8" fill="#fde68a"/>
  <rect x="56" y="16" width="8" height="8" fill="#fde047"/>
  <rect x="56" y="24" width="8" height="8" fill="#fef9c3"/>
  <rect x="56" y="32" width="8" height="8" fill="#fde047"/>
  <rect x="64" y="16" width="8" height="8" fill="#eab308"/>
  <rect x="64" y="24" width="8" height="8" fill="#fde047"/>
  <rect x="64" y="32" width="8" height="8" fill="#eab308"/>
  <rect x="72" y="24" width="8" height="8" fill="#0f172a"/>
  <rect x="80" y="24" width="8" height="8" fill="#eab308"/>
</svg>
